<svg id="eYLUhu6Wmli1" xmlns="http://www.w3.org/2000/svg" xmlns:xlink="http://www.w3.org/1999/xlink" viewBox="0 0 900 900" shape-rendering="geometricPrecision" text-rendering="geometricPrecision" width="900" height="900">
	<!-- <polygon points="0,-250 250,0 0,250 -250,0 0,-250" transform="matrix(.176777 0.176777-.176777 0.176777 162.22025 727.905675)" fill="none" stroke="#000000" stroke-width="100" stroke-linejoin="round" stroke-miterlimit="5" /> -->
	<!-- <path d="M 162.2 727.9 c 156.2 156.2 411.7 158.4 570.6 4.9" transform="translate(0,0)" fill="none" stroke="#3f5787" stroke-width="1.8" /> -->
	<g class="card">
		<ellipse class="type dot" rx="100" ry="100" transform="translate(450,450)" />
		<g class="type double_dot" transform="matrix(.707107 0.707107-.707107 0.707107 450-186.396103)">
			<ellipse rx="100" ry="100" transform="translate(450,650)" />
			<ellipse rx="100" ry="100" transform="translate(450,250)" />
		</g>
		<polygon class="type star" points="0,-250 73.5,-101.1 237.8,-77.3 118.9,38.6 146.9,202.3 0,125 -146.9,202.3 -118.9,38.6 -237.8,-77.3 -73.5,-101.1 0,-250" transform="translate(450,450)" fill="none" stroke="#000000" stroke-width="100" stroke-linejoin="round" />
		<polygon class="type square" points="0,-250 250,0 0,250 -250,0 0,-250" transform="matrix(.707107 0.707107-.707107 0.707107 450 450)" fill="none" stroke="#000000" stroke-width="100" stroke-linejoin="round" stroke-miterlimit="5" />
		<polygon class="type triange" points="0,-250 216.5,125 -216.5,125 0,-250" transform="translate(450,450)" fill="none" stroke="#000000" stroke-width="100" stroke-linejoin="round" stroke-miterlimit="5" />
	</g>
</svg>
